<svg width="512" height="512" viewBox="0 0 512 512" fill="none" xmlns="http://www.w3.org/2000/svg">
  <defs>
    <linearGradient id="grad1" x1="0%" y1="0%" x2="100%" y2="100%">
      <stop offset="0%" style="stop-color:#3B82F6;stop-opacity:1" />
      <stop offset="100%" style="stop-color:#14B8A6;stop-opacity:1" />
    </linearGradient>
    <filter id="glow" x="-20%" y="-20%" width="140%" height="140%">
      <feGaussianBlur stdDeviation="20" result="blur" />
      <feComposite in="SourceGraphic" in2="blur" operator="over" />
    </filter>
  </defs>
  <rect width="512" height="512" rx="128" fill="url(#grad1)" />
  <path d="M256 128L366 320H146L256 128Z" fill="white" fill-opacity="0.2" />
  <path d="M256 160C202.981 160 160 202.981 160 256C160 309.019 202.981 352 256 352C309.019 352 352 309.019 352 256C352 202.981 309.019 160 256 160ZM256 320C220.654 320 192 291.346 192 256C192 220.654 220.654 192 256 192C291.346 192 320 220.654 320 256C320 291.346 291.346 320 256 320Z" fill="white" />
  <circle cx="256" cy="256" r="40" fill="url(#grad1)" />
  <path d="M360 120L390 150M152 120L122 150M360 392L390 362M152 392L122 362" stroke="white" stroke-width="24" stroke-linecap="round" />
</svg>
